<svg width="118" height="22" viewBox="0 0 118 22" fill="none" xmlns="http://www.w3.org/2000/svg">
<path d="M54.8493 16.9734C54.1911 16.9734 53.7131 16.7619 53.4153 16.3387C53.1175 15.8999 53.0235 15.2965 53.1332 14.5285L54.3086 7.07615C54.4183 6.38655 54.6769 5.86935 55.0844 5.52456C55.4919 5.17976 56.0326 5.00736 56.7065 5.00736C57.3334 5.00736 57.8036 5.19543 58.1171 5.57157C58.4305 5.94772 58.5167 6.5041 58.3757 7.24071L58.3736 7.25245C58.3564 7.35104 58.2111 7.33843 58.2111 7.23834C58.2111 7.22448 58.2146 7.21079 58.2214 7.19869C58.6278 6.47126 59.1729 5.92105 59.8567 5.54806C60.5463 5.15625 61.3456 4.96034 62.2547 4.96034C63.0853 4.96034 63.7906 5.13274 64.3705 5.47754C64.966 5.82234 65.3814 6.36304 65.6164 7.09966C65.8672 7.83627 65.9064 8.78447 65.734 9.94425L64.9582 14.8811C64.8485 15.5707 64.5899 16.0958 64.1824 16.4562C63.7749 16.801 63.2264 16.9734 62.5368 16.9734C61.8785 16.9734 61.3927 16.7619 61.0792 16.3387C60.7814 15.8999 60.6952 15.2965 60.8206 14.5285L61.5259 10.0148C61.6356 9.40354 61.5964 8.9412 61.4083 8.62774C61.2203 8.31429 60.8598 8.15756 60.3269 8.15756C59.6843 8.15756 59.1515 8.37698 58.7283 8.81582C58.3208 9.23898 58.0544 9.84238 57.929 10.626L57.2472 14.8811C57.0278 16.276 56.2285 16.9734 54.8493 16.9734Z" fill="#131313"/>
<path d="M73.573 17.044C72.3348 17.044 71.2534 16.8246 70.3287 16.3857C69.404 15.9312 68.6831 15.2965 68.1659 14.4815C67.6487 13.6665 67.3901 12.7183 67.3901 11.6369C67.3901 10.3047 67.68 9.13711 68.2599 8.13405C68.8555 7.131 69.6548 6.35521 70.6578 5.80666C71.6766 5.24245 72.805 4.96034 74.0431 4.96034C75.0462 4.96034 75.8925 5.1249 76.5821 5.45403C77.2874 5.78315 77.8438 6.22983 78.2512 6.79404C78.6744 7.35826 78.9565 8.00084 79.0976 8.72178C79.2386 9.42705 79.2621 10.1558 79.1681 10.9081C79.1211 11.2999 79.0114 11.5585 78.839 11.6839C78.6666 11.7936 78.4393 11.8485 78.1572 11.8485H71.9374C71.3365 11.8485 70.8749 11.3163 70.9599 10.7215C71.0294 10.235 71.446 9.87372 71.9374 9.87372H76.049C76.1329 9.87372 76.1703 9.97908 76.1052 10.032C76.0417 10.0836 75.946 10.0291 75.9539 9.94761C75.9919 9.55533 75.9584 9.20157 75.8533 8.88634C75.7436 8.5102 75.532 8.22025 75.2186 8.01651C74.9208 7.79709 74.5133 7.68738 73.9961 7.68738C73.4946 7.68738 73.0714 7.79709 72.7266 8.01651C72.3818 8.23593 72.0997 8.53371 71.8803 8.90985C71.6766 9.286 71.5433 9.70916 71.4807 10.1793L71.3161 11.0962C71.175 12.0209 71.3474 12.734 71.8333 13.2355C72.3191 13.7214 73.0558 13.9643 74.0431 13.9643C74.4036 13.9643 74.8033 13.9251 75.2421 13.8467C75.6966 13.7684 76.0884 13.6508 76.4175 13.4941C76.8407 13.3217 77.1933 13.2825 77.4755 13.3766C77.7732 13.4706 77.9926 13.6508 78.1337 13.9173C78.2748 14.168 78.3296 14.4501 78.2983 14.7636C78.2826 15.077 78.1807 15.3827 77.9926 15.6804C77.8046 15.9626 77.5225 16.182 77.1463 16.3387C76.5978 16.5895 76.0101 16.7697 75.3832 16.8794C74.7719 16.9891 74.1685 17.044 73.573 17.044Z" fill="#131313"/>
<path d="M82.1464 16.9969C81.4881 16.9969 81.0023 16.7932 80.6888 16.3857C80.3911 15.9782 80.297 15.4062 80.4067 14.6696L81.6057 6.98211C81.7154 6.32386 81.9662 5.83017 82.358 5.50105C82.7655 5.17192 83.2983 5.00736 83.9566 5.00736C84.6148 5.00736 85.0929 5.2111 85.3906 5.61859C85.6884 6.01041 85.7746 6.58246 85.6492 7.33475L85.5447 7.98275C85.5372 8.0293 85.497 8.06353 85.4499 8.06353C85.3853 8.06353 85.3392 8.00107 85.3594 7.93979C85.6464 7.0729 86.1191 6.37753 86.7777 5.85368C87.4829 5.28946 88.2901 4.99168 89.1991 4.96034C89.7006 4.94467 90.0611 5.04654 90.2805 5.26596C90.4999 5.4697 90.6096 5.82234 90.6096 6.32386C90.6096 7.06048 90.4372 7.60902 90.0924 7.96949C89.7633 8.31429 89.2539 8.51803 88.5643 8.58073L87.6945 8.67476C86.8795 8.75313 86.2918 8.98822 85.9313 9.38003C85.5865 9.77185 85.3436 10.3831 85.2026 11.2137L84.6148 14.9987C84.5051 15.6726 84.2465 16.1741 83.839 16.5033C83.4316 16.8324 82.8673 16.9969 82.1464 16.9969Z" fill="#131313"/>
<path d="M94.6721 17.044C93.8101 17.044 93.0578 16.8402 92.4152 16.4327C91.7727 16.0252 91.2711 15.4454 90.9107 14.6931C90.5659 13.9251 90.3935 13.0318 90.3935 12.013C90.3935 10.6495 90.6364 9.43489 91.1222 8.36914C91.6081 7.3034 92.2899 6.47275 93.1675 5.87719C94.0609 5.26596 95.0874 4.96034 96.2472 4.96034C97.0779 4.96034 97.8066 5.14841 98.4335 5.52456C99.0242 5.8642 99.4549 6.35689 99.7256 7.00264C99.7485 7.05736 99.7036 7.1154 99.6446 7.10884C99.5996 7.10384 99.5679 7.06225 99.575 7.0175L100.361 2.04522C100.471 1.35563 100.73 0.846264 101.137 0.517138C101.545 0.172339 102.093 -6.10352e-05 102.783 -6.10352e-05C103.441 -6.10352e-05 103.919 0.21152 104.217 0.634682C104.515 1.05784 104.609 1.65341 104.499 2.42137L102.524 14.9046C102.414 15.5942 102.156 16.1193 101.748 16.4798C101.356 16.8246 100.816 16.9969 100.126 16.9969C99.4836 16.9969 99.0134 16.7775 98.7156 16.3387C98.4179 15.8999 98.3395 15.2965 98.4806 14.5285L98.5981 13.7997C98.5828 14.5511 98.3752 15.3121 97.823 15.8218C97.5375 16.0853 97.2239 16.3124 96.8819 16.5033C96.208 16.8637 95.4714 17.044 94.6721 17.044ZM96.4353 13.9643C96.9681 13.9643 97.4226 13.7997 97.7988 13.4706C98.1749 13.1415 98.4649 12.7026 98.6686 12.1541C98.8724 11.5899 98.9742 10.9473 98.9742 10.2264C98.9742 9.52109 98.8097 8.98038 98.4806 8.60423C98.1671 8.22809 97.7283 8.04002 97.164 8.04002C96.6312 8.04002 96.1688 8.19674 95.777 8.5102C95.4009 8.82365 95.1109 9.26249 94.9072 9.8267C94.7034 10.3909 94.6016 11.0413 94.6016 11.778C94.6016 12.4832 94.7661 13.0239 95.0953 13.4001C95.4244 13.7762 95.8711 13.9643 96.4353 13.9643Z" fill="#131313"/>
<path d="M107.393 21.2286C106.876 21.2286 106.469 21.111 106.171 20.8759C105.889 20.6565 105.732 20.3587 105.701 19.9826C105.685 19.6064 105.802 19.2068 106.053 18.7836L107.84 15.8869C107.942 15.7222 108.196 15.8137 108.17 16.0054C108.143 16.1975 107.872 16.2158 107.82 16.029L105.512 7.78142C105.356 7.23288 105.332 6.75486 105.442 6.34737C105.567 5.92421 105.795 5.59508 106.124 5.35999C106.453 5.1249 106.868 5.00736 107.37 5.00736C107.934 5.00736 108.365 5.14057 108.663 5.40701C108.96 5.67345 109.188 6.1593 109.344 6.86457L110.632 12.4593C110.671 12.6279 110.543 12.7888 110.37 12.7888C110.164 12.7888 110.034 12.5667 110.136 12.3873L113.482 6.46492C113.78 5.93204 114.093 5.5559 114.422 5.33648C114.767 5.11707 115.206 5.00736 115.739 5.00736C116.256 5.00736 116.664 5.1249 116.961 5.35999C117.259 5.57941 117.424 5.87719 117.455 6.25333C117.486 6.61381 117.369 7.01346 117.102 7.45229L109.674 19.7475C109.36 20.2804 109.039 20.6565 108.71 20.8759C108.381 21.111 107.942 21.2286 107.393 21.2286Z" fill="#131313"/>
<path d="M6.04182 17.044C4.70964 17.044 3.59688 16.8246 2.70354 16.3857C1.81019 15.9312 1.13627 15.2965 0.681761 14.4815C0.227254 13.6665 0 12.7183 0 11.6369C0 10.7592 0.141054 9.92074 0.423162 9.12144C0.720943 8.32213 1.15978 7.60902 1.73967 6.98211C2.31956 6.35521 3.04833 5.86152 3.926 5.50105C4.80367 5.14058 5.8224 4.96034 6.98218 4.96034C7.53072 4.96034 8.00874 4.99952 8.41623 5.07788C8.82372 5.15625 9.23904 5.25812 9.6622 5.3835C10.1167 5.52456 10.438 5.74397 10.6261 6.04175C10.8298 6.32386 10.9239 6.62948 10.9082 6.95861C10.9082 7.28773 10.822 7.59335 10.6496 7.87546C10.4772 8.14189 10.2499 8.34564 9.96782 8.48669C9.70138 8.61207 9.39577 8.60424 9.05097 8.46318C8.73752 8.3378 8.43973 8.2516 8.15763 8.20458C7.87552 8.14189 7.60125 8.11055 7.33481 8.11055C6.77059 8.11055 6.29258 8.21242 5.90076 8.41616C5.50894 8.60424 5.19549 8.87067 4.9604 9.21547C4.72531 9.5446 4.55291 9.9129 4.4432 10.3204C4.33349 10.7279 4.27864 11.1432 4.27864 11.5664C4.27864 12.2716 4.46671 12.8359 4.84286 13.259C5.219 13.6822 5.84591 13.8938 6.72358 13.8938C6.91165 13.8938 7.14674 13.8624 7.42885 13.7997C7.72663 13.737 8.04008 13.643 8.36921 13.5176C8.66699 13.4079 8.93342 13.4157 9.16851 13.5411C9.41928 13.6665 9.61518 13.8624 9.75624 14.1289C9.91297 14.3796 9.98349 14.6617 9.96782 14.9752C9.96782 15.2886 9.87378 15.5864 9.68571 15.8685C9.49764 16.135 9.18419 16.3544 8.74535 16.5268C8.38488 16.6992 7.95388 16.8246 7.45236 16.9029C6.9665 16.997 6.49632 17.044 6.04182 17.044Z" fill="#54B0FF"/>
<path d="M17.1289 17.044C15.8594 17.044 14.778 16.8246 13.8846 16.3857C13.007 15.9312 12.333 15.2965 11.8629 14.4815C11.4084 13.6665 11.1811 12.7183 11.1811 11.6369C11.1811 10.5241 11.3692 9.55243 11.7453 8.72178C12.1371 7.89113 12.6543 7.1937 13.2969 6.62948C13.9552 6.06526 14.6918 5.64994 15.5068 5.3835C16.3217 5.10139 17.1602 4.96034 18.0222 4.96034C19.276 4.96034 20.3418 5.18759 21.2195 5.6421C22.1128 6.08094 22.7946 6.70784 23.2647 7.52282C23.7349 8.32213 23.97 9.26249 23.97 10.3439C23.97 11.4723 23.7741 12.4519 23.3823 13.2825C23.0061 14.1132 22.4889 14.8106 21.8307 15.3748C21.1881 15.939 20.4593 16.3622 19.6443 16.6443C18.8294 16.9108 17.9909 17.044 17.1289 17.044ZM17.1994 13.9643C17.7323 13.9643 18.1868 13.8076 18.5629 13.4941C18.9548 13.165 19.2525 12.7183 19.4563 12.1541C19.66 11.5899 19.7619 10.9473 19.7619 10.2264C19.7619 9.52109 19.5973 8.98038 19.2682 8.60424C18.9548 8.22809 18.5081 8.04002 17.9282 8.04002C17.411 8.04002 16.9565 8.19675 16.5647 8.5102C16.1885 8.82365 15.8986 9.26249 15.6948 9.8267C15.4911 10.3909 15.3892 11.0413 15.3892 11.778C15.3892 12.4832 15.5459 13.0239 15.8594 13.4001C16.1885 13.7762 16.6352 13.9643 17.1994 13.9643Z" fill="#54B0FF"/>
<path d="M29.5549 17.044C28.6929 17.044 27.9406 16.8402 27.298 16.4327C26.6554 16.0252 26.1539 15.4454 25.7934 14.6931C25.4486 13.9251 25.2762 13.0318 25.2762 12.013C25.2762 10.6495 25.5191 9.43489 26.005 8.36915C26.4909 7.3034 27.1726 6.47275 28.0503 5.87719C28.9436 5.26596 29.9702 4.96034 31.13 4.96034C31.9606 4.96034 32.6894 5.14841 33.3163 5.52456C33.907 5.8642 34.3377 6.35689 34.6083 7.00264C34.6313 7.05736 34.5864 7.1154 34.5274 7.10885C34.4824 7.10384 34.4507 7.06225 34.4577 7.0175L35.244 2.04522C35.3538 1.35563 35.6124 0.846264 36.0198 0.517138C36.4273 0.172339 36.9759 -6.10352e-05 37.6655 -6.10352e-05C38.3237 -6.10352e-05 38.8017 0.21152 39.0995 0.634682C39.3973 1.05784 39.4913 1.65341 39.3816 2.42137L37.4069 14.9046C37.2972 15.5942 37.0386 16.1193 36.6311 16.4798C36.2393 16.8246 35.6986 16.997 35.009 16.997C34.3664 16.997 33.8962 16.7775 33.5984 16.3387C33.3006 15.8999 33.2223 15.2965 33.3633 14.5285L33.4809 13.7997C33.4655 14.5511 33.258 15.3121 32.7057 15.8218C32.4203 16.0853 32.1066 16.3124 31.7647 16.5033C31.0908 16.8637 30.3542 17.044 29.5549 17.044ZM31.318 13.9643C31.8509 13.9643 32.3054 13.7997 32.6816 13.4706C33.0577 13.1415 33.3476 12.7026 33.5514 12.1541C33.7551 11.5899 33.857 10.9473 33.857 10.2264C33.857 9.52109 33.6924 8.98038 33.3633 8.60424C33.0499 8.22809 32.611 8.04002 32.0468 8.04002C31.5139 8.04002 31.0516 8.19675 30.6598 8.5102C30.2836 8.82365 29.9937 9.26249 29.79 9.8267C29.5862 10.3909 29.4843 11.0413 29.4843 11.778C29.4843 12.4832 29.6489 13.0239 29.978 13.4001C30.3071 13.7762 30.7538 13.9643 31.318 13.9643Z" fill="#54B0FF"/>
<path d="M46.0609 17.044C44.8228 17.044 43.7414 16.8246 42.8167 16.3857C41.892 15.9312 41.1711 15.2965 40.6539 14.4815C40.1367 13.6665 39.8781 12.7183 39.8781 11.6369C39.8781 10.3047 40.168 9.13711 40.7479 8.13406C41.3435 7.131 42.1428 6.35521 43.1458 5.80666C44.1645 5.24245 45.293 4.96034 46.5311 4.96034C47.5342 4.96034 48.3805 5.1249 49.0701 5.45403C49.7754 5.78316 50.3317 6.22983 50.7392 6.79404C51.1624 7.35826 51.4445 8.00084 51.5856 8.72178C51.7266 9.42705 51.7501 10.1558 51.6561 10.9081C51.6091 11.2999 51.4994 11.5585 51.327 11.6839C51.1546 11.7936 50.9273 11.8485 50.6452 11.8485H44.4253C43.8245 11.8485 43.3629 11.3163 43.4479 10.7215C43.5174 10.235 43.934 9.87372 44.4253 9.87372H48.537C48.6209 9.87372 48.6583 9.97908 48.5932 10.032C48.5297 10.0836 48.434 10.0291 48.4419 9.94761C48.4799 9.55533 48.4464 9.20157 48.3413 8.88634C48.2316 8.5102 48.02 8.22026 47.7066 8.01651C47.4088 7.79709 47.0013 7.68739 46.4841 7.68739C45.9826 7.68739 45.5594 7.79709 45.2146 8.01651C44.8698 8.23593 44.5877 8.53371 44.3683 8.90985C44.1645 9.286 44.0313 9.70916 43.9686 10.1793L43.8041 11.0962C43.663 12.0209 43.8354 12.734 44.3213 13.2355C44.8071 13.7214 45.5437 13.9643 46.5311 13.9643C46.8916 13.9643 47.2912 13.9251 47.7301 13.8467C48.1846 13.7684 48.5764 13.6508 48.9055 13.4941C49.3287 13.3217 49.6813 13.2825 49.9634 13.3766C50.2612 13.4706 50.4806 13.6508 50.6217 13.9173C50.7627 14.168 50.8176 14.4501 50.7863 14.7636C50.7706 15.0771 50.6687 15.3827 50.4806 15.6804C50.2926 15.9626 50.0105 16.182 49.6343 16.3387C49.0858 16.5895 48.498 16.7697 47.8711 16.8794C47.2599 16.9891 46.6565 17.044 46.0609 17.044Z" fill="#54B0FF"/>
</svg>
