<svg width="87" height="48" viewBox="0 0 87 48" fill="none" xmlns="http://www.w3.org/2000/svg">
<path d="M4.13779 47.4899L0.823242 41.5436C2.32839 40.808 3.65724 40.025 4.81026 39.1937C5.96284 38.3946 6.92347 37.5315 7.69215 36.604C8.4926 35.7091 9.08499 34.7659 9.46933 33.7749C9.85367 32.7516 10.0456 31.6648 10.0456 30.514C10.0456 29.1073 9.74136 27.6205 9.13331 26.0541C8.55657 24.4876 7.82011 22.8411 6.92347 21.1149L13.0237 18.0934C13.5364 19.0527 13.9848 20.0438 14.3687 21.0666C14.7852 22.0899 15.1534 23.0487 15.4738 23.944C15.7937 24.8393 16.034 25.5905 16.1942 26.1981C16.6425 27.7964 17.2827 28.8993 18.1154 29.5069C18.9481 30.0823 20.0371 30.37 21.3816 30.37C22.4067 30.37 23.1749 30.6738 23.6877 31.2814C24.2 31.8568 24.4559 32.5758 24.4559 33.4393C24.4559 34.3981 24.1517 35.1816 23.5436 35.7888C22.9351 36.3964 22.0541 36.7002 20.9015 36.7002C19.7807 36.7002 18.7718 36.5082 17.8751 36.1248C17.0107 35.7091 16.2904 35.1337 15.7136 34.3981C15.1373 33.663 14.753 32.8156 14.561 31.8568L16.4344 30.9932C16.4022 32.6876 16.1141 34.3342 15.5695 35.9328C15.0255 37.4993 14.2246 38.9861 13.1682 40.3928C12.1432 41.799 10.8783 43.0939 9.37313 44.2769C7.86843 45.4599 6.12302 46.5306 4.13779 47.4899Z" fill="#131313"/>
<path d="M20.897 36.7002L21.3771 30.37C22.2419 30.37 22.9462 30.2743 23.4907 30.0823C24.0352 29.8904 24.4835 29.4747 24.8357 28.8353C25.22 28.196 25.5721 27.2049 25.8925 25.8622C26.2446 24.5194 26.629 22.7293 27.0451 20.4913L33.0495 21.5942C32.9533 22.17 32.8415 22.7933 32.7135 23.4644C32.5851 24.1038 32.4733 24.7593 32.3771 25.4309C32.2809 26.102 32.233 26.7414 32.233 27.349C32.233 28.3078 32.4733 29.0595 32.9533 29.6027C33.4339 30.1141 34.2822 30.37 35.4992 30.37C36.2357 30.37 36.8442 30.2743 37.3247 30.0823C37.837 29.8904 38.2692 29.4747 38.6214 28.8353C38.9739 28.1642 39.2938 27.1409 39.582 25.7664C39.9023 24.3597 40.2388 22.4895 40.5909 20.1557L46.7395 21.115C46.6111 21.7861 46.467 22.5534 46.3068 23.4165C46.1789 24.2479 46.067 25.047 45.9708 25.8143C45.8746 26.5499 45.8267 27.157 45.8267 27.6367C45.8267 28.1481 45.9386 28.6277 46.1627 29.0751C46.3869 29.4908 46.7551 29.8107 47.2674 30.0344C47.812 30.2581 48.5328 30.37 49.4294 30.37C50.2616 30.37 50.9502 30.2581 51.4947 30.0344C52.0393 29.7785 52.4554 29.379 52.7435 28.8353C53.0639 28.2922 53.224 27.5727 53.224 26.6774C53.224 25.3669 52.9516 23.7521 52.4075 21.834C51.8947 19.9159 51.2706 17.8859 50.5341 15.7441L56.7784 13.7776C57.2907 15.1843 57.7551 16.6711 58.1712 18.2376C58.5878 19.804 58.9238 21.3226 59.1802 22.7933C59.4361 24.2317 59.5645 25.5266 59.5645 26.6774C59.5645 28.3078 59.3082 29.7467 58.7959 30.9933C58.3153 32.2085 57.6111 33.2474 56.6822 34.1105C55.7856 34.9736 54.7448 35.6291 53.5601 36.0765C52.3753 36.4921 51.0943 36.7002 49.7176 36.7002C48.2764 36.7002 47.0594 36.5083 46.067 36.1248C45.0742 35.7409 44.2737 35.1015 43.6652 34.2062C43.0567 33.3114 42.6402 32.0966 42.416 30.5619H43.9533C43.3448 32.3843 42.6245 33.7427 41.7918 34.638C40.9914 35.5011 40.0786 36.0608 39.054 36.3163C38.0612 36.5722 36.9082 36.7002 35.5954 36.7002C34.6665 36.7002 33.6898 36.5722 32.6652 36.3163C31.6724 36.0608 30.7757 35.4854 29.9753 34.5901C29.1748 33.6948 28.5663 32.336 28.1502 30.5141L30.744 30.4179C30.0715 32.2402 29.2227 33.5991 28.1981 34.4944C27.2052 35.3892 26.0844 35.9807 24.8357 36.2684C23.5869 36.5561 22.2737 36.7002 20.897 36.7002ZM43.0885 6.20087C42.224 6.20087 41.4876 5.91318 40.8791 5.33779C40.3028 4.73018 40.0146 3.99506 40.0146 3.13152C40.0146 2.30065 40.3028 1.58119 40.8791 0.973582C41.4876 0.366423 42.224 0.0626221 43.0885 0.0626221C43.9211 0.0626221 44.6258 0.366423 45.2021 0.973582C45.8106 1.58119 46.1149 2.30065 46.1149 3.13152C46.1149 3.99506 45.8106 4.73018 45.2021 5.33779C44.6258 5.91318 43.9211 6.20087 43.0885 6.20087ZM39.3422 12.9624C38.4773 12.9624 37.7408 12.6586 37.1323 12.0514C36.556 11.4438 36.2679 10.7244 36.2679 9.89349C36.2679 9.06217 36.556 8.34271 37.1323 7.73555C37.7408 7.12795 38.4773 6.82414 39.3422 6.82414C40.1748 6.82414 40.8791 7.12795 41.4554 7.73555C42.0639 8.34271 42.3681 9.06217 42.3681 9.89349C42.3681 10.7566 42.0639 11.4917 41.4554 12.0993C40.8791 12.6747 40.1748 12.9624 39.3422 12.9624ZM47.1234 12.9624C46.2589 12.9624 45.5225 12.6586 44.914 12.0514C44.3377 11.4438 44.0495 10.7244 44.0495 9.89349C44.0495 9.02996 44.3377 8.31094 44.914 7.73555C45.5225 7.12795 46.2589 6.82414 47.1234 6.82414C47.9882 6.82414 48.7086 7.12795 49.2849 7.73555C49.8616 8.31094 50.1498 9.02996 50.1498 9.89349C50.1498 10.7566 49.8455 11.4917 49.237 12.0993C48.6607 12.6747 47.956 12.9624 47.1234 12.9624Z" fill="#131313"/>
<path d="M75.8706 36.7002C73.4688 36.7002 71.5476 36.3964 70.1064 35.7888C68.6974 35.1816 67.6728 34.2385 67.0321 32.9597C66.4236 31.681 66.0715 30.0505 65.9753 28.0684L64.9668 1.16553H71.4035L72.412 24.7593C72.476 26.3579 72.6362 27.5727 72.8925 28.404C73.1485 29.2031 73.5489 29.7306 74.0934 29.9866C74.6375 30.242 75.3901 30.37 76.3507 30.37C77.4075 30.37 78.1762 30.6738 78.6563 31.2814C79.169 31.8568 79.425 32.5758 79.425 33.4394C79.425 34.3982 79.1207 35.1816 78.5122 35.7888C77.9042 36.3964 77.0232 36.7002 75.8706 36.7002Z" fill="#131313"/>
<path d="M75.8735 36.7002L76.3541 30.37C77.2507 30.37 78.0033 30.2581 78.6118 30.0344C79.2203 29.8107 79.6686 29.4111 79.9568 28.8353C80.2767 28.2599 80.4368 27.4769 80.4368 26.4858C80.4368 25.5266 80.325 24.4075 80.1008 23.1288C79.8767 21.85 79.5724 20.5391 79.1881 19.1964C78.8359 17.8219 78.4677 16.5592 78.0834 15.408L84.1836 13.6818C84.6002 14.7686 85.0002 16.0317 85.3845 17.4702C85.7688 18.9087 86.0892 20.4116 86.3451 21.978C86.6015 23.5445 86.7295 25.0791 86.7295 26.5816C86.7295 28.276 86.5053 29.7145 86.057 30.8975C85.6409 32.0483 85.0641 33.0075 84.3277 33.7749C83.6234 34.5422 82.7908 35.1337 81.8301 35.5489C80.9013 35.9646 79.9245 36.2684 78.8999 36.4603C77.8753 36.6201 76.8664 36.7002 75.8735 36.7002ZM81.2055 9.46168C80.2767 9.46168 79.4923 9.15788 78.8521 8.55072C78.2436 7.91134 77.9393 7.15967 77.9393 6.29658C77.9393 5.40173 78.2436 4.63439 78.8521 3.99502C79.4923 3.32343 80.2767 2.98785 81.2055 2.98785C82.07 2.98785 82.8069 3.32343 83.4149 3.99502C84.0556 4.63439 84.376 5.38562 84.376 6.24871C84.376 7.14401 84.0556 7.91134 83.4149 8.55072C82.8069 9.15788 82.07 9.46168 81.2055 9.46168Z" fill="#131313"/>
</svg>
